<svg width="23" height="23" viewBox="0 0 23 23" fill="none" xmlns="http://www.w3.org/2000/svg">
<path fill-rule="evenodd" clip-rule="evenodd" d="M11.5 2.3C6.41898 2.3 2.3 6.41898 2.3 11.5C2.3 16.581 6.41898 20.7 11.5 20.7C16.581 20.7 20.7 16.581 20.7 11.5C20.7 6.41898 16.581 2.3 11.5 2.3ZM0 11.5C0 5.14873 5.14873 0 11.5 0C17.8513 0 23 5.14873 23 11.5C23 17.8513 17.8513 23 11.5 23C5.14873 23 0 17.8513 0 11.5ZM11.5 5.75C12.1351 5.75 12.65 6.26487 12.65 6.9V10.35H16.1C16.7351 10.35 17.25 10.8649 17.25 11.5C17.25 12.1351 16.7351 12.65 16.1 12.65H12.65V16.1C12.65 16.7351 12.1351 17.25 11.5 17.25C10.8649 17.25 10.35 16.7351 10.35 16.1V12.65H6.9C6.26487 12.65 5.75 12.1351 5.75 11.5C5.75 10.8649 6.26487 10.35 6.9 10.35H10.35V6.9C10.35 6.26487 10.8649 5.75 11.5 5.75Z" fill="#454D58"/>
</svg>
